<svg id="Rose-logo" xmlns="http://www.w3.org/2000/svg" width="157.159" height="45" viewBox="0 0 157.159 45">
    <g id="icon" transform="translate(-11.31 -11.293)">
        <path class="pri_svgcolor_main" id="path"
            d="M142.6,100.347H103.4a2.9,2.9,0,0,0-2.9,2.9v39.2a2.9,2.9,0,0,0,2.9,2.9h39.2a2.9,2.9,0,0,0,2.9-2.9v-39.2a2.9,2.9,0,0,0-2.9-2.9m-.614,41.487H104.013V103.86h37.974Z"
            transform="translate(-89.19 -89.054)" fill="#0d0d82"></path>
        <path class="pri_svgcolor_main" id="path-2" data-name="path"
            d="M181.022,197.353V199.9h-3.017a2.566,2.566,0,0,1-2.549-2.536l0-6.83a7.213,7.213,0,0,1,5.568,6.818m10.891.253a7.308,7.308,0,0,1,5.567-7.073v6.822a2.567,2.567,0,0,1-2.543,2.546h-3.023ZM178,203.348h3.024v3.233c0,2.1-1.16,2.368-2.169,2.368h-5.886V212.4h5.886c3.412,0,5.616-2.282,5.616-5.815v-3.232h4v9.069h3.447v-9.07h3.031a6.029,6.029,0,0,0,5.982-5.983l0-10.485H199.2a10.754,10.754,0,0,0-10.738,10.72v2.3h-4v-2.555a10.63,10.63,0,0,0-10.738-10.467h-1.724l0,10.495A6.028,6.028,0,0,0,178,203.348"
            transform="translate(-152.65 -165.849)" fill="#0d0d82"></path>
    </g>
    <g id="lettering" transform="translate(-11.31 -11.293)">
        <path class="pri_svgcolor_main" id="path-3" data-name="path"
            d="M679.165,202.091h-6.473c0-7.4-3.9-11.661-10.774-11.883v11.883h-6.473V170.61h12.1c7.316,0,10.331,4.966,10.331,9.311a8.022,8.022,0,0,1-6.385,7.937c4.966,2.217,7.671,6.739,7.671,14.233m-11.794-25.362h-5.454v7.715h5.5a3.861,3.861,0,1,0-.044-7.715"
            transform="translate(-581.683 -151.41)" fill="#0d0d82"></path>
        <path class="pri_svgcolor_main" id="path-4" data-name="path"
            d="M876.438,256.387a11.717,11.717,0,0,1,3.547-8.6l4.212,4.345c-.355-1.108-1.109-7.449,5.276-7.449,5.587,0,11,4.789,11,11.972a11.717,11.717,0,0,1-3.547,8.6l-4.212-4.345c.355,1.109,1.153,7.4-5.232,7.4-5.587,0-11.04-4.744-11.04-11.927m17.736.222c0-3.1-2.084-6.074-5.587-6.074a5.622,5.622,0,0,0-5.853,5.9c0,3.1,2.084,6.075,5.586,6.075a5.622,5.622,0,0,0,5.853-5.9"
            transform="translate(-777.807 -217.146)" fill="#0d0d82"></path>
        <path class="pri_svgcolor_main" id="path-5" data-name="path"
            d="M1098.886,260.51h6.3c.4,2.173,1.951,2.793,4.079,2.793,1.907,0,3.281-.488,3.281-1.729,0-1.064-1.064-1.507-2.838-2l-4.478-1.286c-3.858-1.108-5.631-3.37-5.631-6.473,0-4.744,4.123-7.139,9.4-7.139,5.675,0,8.912,2.749,9.533,7.272h-6.3c-.577-1.641-1.774-2.217-3.5-2.217-1.773,0-2.926.576-2.926,1.774,0,.8.532,1.419,2.793,2.04l4.656,1.286c3.813,1.064,5.5,3.148,5.5,6.341,0,5.01-4.079,7.183-9.444,7.183-6.385,0-10.065-3.059-10.42-7.848"
            transform="translate(-975.222 -217.146)" fill="#0d0d82"></path>
        <path class="pri_svgcolor_main" id="path-6" data-name="path"
            d="M1286.23,256.52c0-6.119,4.124-11.838,11.883-11.838s11.839,5.72,11.839,11.838c0,.532-.089,1.508-.089,1.508h-17.248a5.5,5.5,0,0,0,5.764,4.744c2.261,0,3.813-.931,4.434-2.66h6.784c-1.064,4.656-5.055,8.247-11.4,8.247-7.892,0-11.972-5.675-11.972-11.838m17.2-2.616a5.646,5.646,0,0,0-10.553,0Z"
            transform="translate(-1141.483 -217.146)" fill="#0d0d82"></path>
    </g>
</svg>