<?xml version="1.0" encoding="utf-8"?>
<!-- Generator: Adobe Illustrator 26.2.1, SVG Export Plug-In . SVG Version: 6.00 Build 0)  -->
<svg version="1.1" id="Layer_1" xmlns="http://www.w3.org/2000/svg" xmlns:xlink="http://www.w3.org/1999/xlink" x="0px"
	y="0px" viewBox="0 0 138.6 52" style="enable-background:new 0 0 138.6 52;" xml:space="preserve">
	<style type="text/css">
		.st0 {
			clip-path: url(#SVGID_00000121265903378888406630000002959940624764025271_);
		}

		.st1 {
			fill: #FFFFFF;
		}

		.st2 {
			fill: none;
		}
	</style>
	<g id="Rose" transform="translate(-363 -240)">
		<g id="Group_11238" transform="translate(363 240)">
			<g>
				<defs>
					<rect id="SVGID_1_" width="138.6" height="52" />
				</defs>
				<clipPath id="SVGID_00000163033408195254169420000017033641555049738382_">
					<use xlink:href="#SVGID_1_" style="overflow:visible;" />
				</clipPath>
				<g id="Group_11237" style="clip-path:url(#SVGID_00000163033408195254169420000017033641555049738382_);">
					<path id="Path_4973" class="st1 pri_svgcolor_main" d="M41.1,8.7H10.9c-1.2,0-2.2,1-2.2,2.2v30.2c0,1.2,1,2.2,2.2,2.2h30.2c1.2,0,2.2-1,2.2-2.2
					V10.9C43.3,9.7,42.3,8.7,41.1,8.7 M40.6,40.6H11.4V11.4h29.2L40.6,40.6z" />
					<path id="Path_4974" class="st1 pri_svgcolor_main" d="M21.8,24.2v2h-2.3c-1.1,0-1.9-0.9-2-2V19C20,19.6,21.8,21.7,21.8,24.2 M30.2,24.4
					c0-2.6,1.8-4.8,4.3-5.4v5.2c0,1.1-0.9,1.9-2,2h-2.3V24.4z M19.5,28.9h2.3v2.5c0,1.6-0.9,1.8-1.7,1.8h-4.5v2.7h4.5
					c2.3,0.1,4.2-1.6,4.3-3.9c0-0.2,0-0.4,0-0.6v-2.5h3.1v7h2.7v-7h2.3c2.5,0,4.6-2.1,4.6-4.6v-8.1h-1.3c-4.6,0-8.2,3.7-8.3,8.2v1.8
					h-3.1v-2c-0.1-4.5-3.8-8.1-8.3-8.1h-1.3v8.1C14.9,26.8,17,28.8,19.5,28.9" />
					<path id="Path_4975" class="st1 pri_svgcolor_main"
						d="M75,39h-5c0-5.7-3-9-8.3-9.1V39h-5V14.8H66c5.6,0,7.9,3.8,7.9,7.2c0,2.9-2,5.5-4.9,6.1
					C72.9,29.7,75,33.2,75,39 M65.9,19.5h-4.2v5.9h4.2c1.6,0.1,3-1.2,3.1-2.9s-1.2-3-2.9-3.1C66.1,19.5,66,19.5,65.9,19.5" />
					<path id="Path_4976" class="st1 pri_svgcolor_main" d="M75.9,30.2c0-2.5,0.9-4.9,2.7-6.6l3.2,3.3c-0.3-0.9-0.9-5.7,4.1-5.7c4.3,0,8.5,3.7,8.5,9.2
					c0,2.5-0.9,4.9-2.7,6.6l-3.2-3.3c0.3,0.9,0.9,5.7-4,5.7C79.5,39.2,75.7,35.1,75.9,30.2C75.9,30.2,75.9,30.2,75.9,30.2
					 M89.5,30.4c0.1-2.4-1.7-4.5-4.1-4.7c-0.1,0-0.1,0-0.2,0c-2.4-0.1-4.4,1.8-4.5,4.1c0,0.1,0,0.3,0,0.4c-0.1,2.4,1.7,4.5,4.1,4.7
					c0.1,0,0.1,0,0.2,0c2.4,0.1,4.4-1.8,4.5-4.1C89.5,30.6,89.5,30.5,89.5,30.4" />
					<path id="Path_4977" class="st1 pri_svgcolor_main" d="M95.1,33.4h4.8c0.3,1.7,1.5,2.1,3.1,2.1c1.5,0,2.5-0.4,2.5-1.3c0-0.8-0.8-1.2-2.2-1.5
					l-3.4-1c-3-0.9-4.3-2.6-4.3-5c0-3.6,3.2-5.5,7.2-5.5c4.4,0,6.9,2.1,7.3,5.6h-4.8c-0.4-1.1-1.5-1.9-2.7-1.7
					c-1.4,0-2.3,0.4-2.3,1.4c0,0.6,0.4,1.1,2.1,1.6l3.6,1c2.9,0.8,4.2,2.4,4.2,4.9c0,3.9-3.1,5.5-7.3,5.5
					C98.2,39.4,95.4,37,95.1,33.4" />
					<path id="Path_4978" class="st1 pri_svgcolor_main" d="M111.3,30.3c-0.2-4.8,3.6-8.9,8.4-9.1c0.3,0,0.5,0,0.8,0c6,0,9.1,4.4,9.1,9.1
					c0,0.4-0.1,1.2-0.1,1.2h-13.3c0.3,2.2,2.2,3.8,4.4,3.6c1.5,0.2,2.9-0.7,3.4-2h5.2c-0.8,3.6-3.9,6.3-8.8,6.3
					C114.5,39.4,111.3,35,111.3,30.3 M124.6,28.3c-0.9-2.2-3.4-3.4-5.6-2.5c-1.2,0.4-2.1,1.4-2.5,2.5H124.6z" />
					<rect id="Rectangle_11791" x="0" y="0" class="st2" width="138.5" height="51.9" />
				</g>
			</g>
		</g>
	</g>
</svg>